<?xml version="1.0"?>
<svg xmlns="http://www.w3.org/2000/svg" id="Capa_1" enable-background="new 0 0 512 512" height="512px" viewBox="0 0 512 512" width="512px"><g><g><g><path d="m457.538 23.51h-403.076c-30.03 0-54.462 24.472-54.462 54.553v343.387c0 36.966 30.021 67.04 66.923 67.04h378.156c36.9 0 66.921-30.073 66.921-67.037v-343.39c0-30.081-24.432-54.553-54.462-54.553zm-403.076 20h403.075c19.003 0 34.463 15.501 34.463 34.553v68.533c-3.946-1.685-8.285-2.619-12.838-2.619h-11.018v-41.644c0-14.753-11.986-26.756-26.719-26.756h-127.157c-5.523 0-10 4.478-10 10s4.477 10 10 10h127.157c3.705 0 6.719 3.03 6.719 6.756v41.644h-257.902v-14.503c0-12.835-4.509-24.631-12.015-33.897h45.628c5.523 0 10-4.478 10-10s-4.477-10-10-10h-203.756c1.276-17.895 16.196-32.067 34.363-32.067zm437.538 377.943c0 25.936-21.049 47.037-46.921 47.037h-378.156c-25.873 0-46.923-21.101-46.923-47.04v-325.873h116.435c18.642 0 33.808 15.206 33.808 33.897v24.503c0 5.523 4.477 10 10 10h298.919c7.079 0 12.838 5.78 12.838 12.885z" data-original="#000000" class="active-path" fill="#000000"/><g><path d="m269.25 95.569c-4.246 0-8.102-2.76-9.47-6.779-1.352-3.972-.007-8.515 3.311-11.094 3.19-2.48 7.648-2.783 11.15-.779 3.565 2.039 5.557 6.242 4.869 10.291-.809 4.767-5.013 8.361-9.86 8.361z" data-original="#000000" class="active-path" fill="#000000"/></g><path d="m361.281 189.74c-2.654-1.874-6.053-2.339-9.114-1.255l-130.531 46.354h-45.95c-16.101 0-29.199 13.1-29.199 29.2v49.124c0 13.747 9.552 25.298 22.365 28.384v86.058c0 5.523 4.477 10 10 10h23.278c17.22 0 31.23-14.01 31.23-31.229v-59.849l118.807 42.19c1.088.387 2.22.576 3.346.576 2.039 0 4.058-.624 5.769-1.831 2.654-1.874 4.232-4.92 4.232-8.169v-181.384c-.001-3.249-1.579-6.295-4.233-8.169zm-194.794 74.299c0-5.073 4.127-9.2 9.199-9.2h37.674v67.523h-37.674c-5.072 0-9.199-4.127-9.199-9.199zm46.873 142.336c0 6.192-5.038 11.229-11.23 11.229h-13.278v-75.242h24.508zm132.153-41.246-112.153-39.827v-73.402l112.153-39.827z" data-original="#000000" class="active-path" fill="#000000"/></g></g></g> </svg>
