<?xml version="1.0"?>
<svg xmlns="http://www.w3.org/2000/svg" id="Outline" viewBox="0 0 64 64" width="512px" height="512px"><g><path d="M62,39.269V18.113a1,1,0,0,0-1-1H43.3l3.364-3.364L49.4,15.8a1,1,0,0,0,.6.2h1a1,1,0,0,0,.6-.2l4-3A1,1,0,0,0,56,12V3a1,1,0,0,0-1-1H46a1,1,0,0,0-1,1v9a.985.985,0,0,0,.121.465l-4.343,4.343.3.3H30.669l-2.819-2.82a1,1,0,0,0-1.694.542l-.38,2.278H22.3l2.406-2.406c.009-.009.012-.021.02-.03a1,1,0,0,0,.2-.294v0c0-.008,0-.017.006-.026a.991.991,0,0,0,.062-.316c0-.034,0-.066,0-.1a1,1,0,0,0-.049-.249.814.814,0,0,0-.035-.1.968.968,0,0,0-.2-.3l-12-12a.939.939,0,0,0-.394-.232,1.008,1.008,0,0,0-.249-.049c-.035,0-.067-.006-.1-.005a.984.984,0,0,0-.314.062c-.009,0-.019,0-.027.006h0a1,1,0,0,0-.294.2c-.009.008-.021.011-.03.02l-9,9c-.009.009-.012.021-.02.03a1,1,0,0,0-.2.294v0c0,.008,0,.017-.006.026a.991.991,0,0,0-.062.316c0,.034,0,.066,0,.1a1,1,0,0,0,.049.248.88.88,0,0,0,.035.1.968.968,0,0,0,.2.3L7.7,17.113H3a1,1,0,0,0-1,1v41a3,3,0,0,0,3,3H59a3,3,0,0,0,3-3V39.269ZM47,4h7v7.5L50.667,14h-.334l-2.239-1.68,1.877-1.877L48.557,9.029,47,10.586ZM60,36.791l-2-2.078v-12.6a1,1,0,0,0-1-1H42.393a.984.984,0,0,0-.281-.707l-1.293-1.293H60Zm-3.877,6.13H56v.129l-9.019,9.423L37.417,43,47,33.414l3.293,3.293A1,1,0,0,0,51,37l.071,0a1,1,0,0,0,.729-.4l2.3-3.06,5.519,5.734ZM56,45.943V51H51.159ZM14.293,23.707A1.008,1.008,0,0,0,15,24a1,1,0,0,0,.38-.076h0a1,1,0,0,0,.294-.2c.009-.008.021-.011.03-.02l.594-.594h8.04a28.17,28.17,0,0,1-1.919,4.264l-1.035,1.864-9.094,9.093a1,1,0,0,0,0,1.415l7.071,7.071a1,1,0,0,0,1.414,0l1.46-1.46,4.46,4.46a1,1,0,0,0,1.414,0l4-4a1,1,0,0,0-.39-1.656l-2.777-.925-2.293-2.293,3.261-3.261A28.121,28.121,0,0,1,42.06,32.5l1.509-.251a1,1,0,0,0,.543-1.693l-4.5-4.5,1.763-2.939H56V25H45v2H56v5.636l-1.279-1.329c-.008-.009-.02-.012-.028-.02a.993.993,0,0,0-.261-.179.875.875,0,0,0-.083-.037A1,1,0,0,0,54,31H47a.987.987,0,0,0-.346.069c-.031.012-.059.028-.09.043a.973.973,0,0,0-.219.146c-.016.014-.037.02-.052.035l-11,11a1,1,0,0,0,0,1.417L42.653,51H8V23.113h5.7ZM21.586,15,16,20.586V15Zm3.652,27.36,2.46,2.46a1.006,1.006,0,0,0,.391.242l1.465.488L27.405,47.7l-3.753-3.753ZM20.071,44.7l-.678-.678,2.314-2.314-1.414-1.414-2.314,2.314-1.586-1.586,2.314-2.314-1.414-1.414-2.314,2.314-.565-.565,7.778-7.779L27.85,36.92ZM40.146,21.268l-2,3.326-3.226-3.226,3.326-2ZM52,33l-1.108,1.478L49.414,33ZM34.8,19.113l-1.329.8-.8-.8Zm-7.258-.4.273-1.63L41.326,30.6a30.149,30.149,0,0,0-11.959,5.01l-5.934-5.934.737-1.327A29.912,29.912,0,0,0,27.537,18.711Zm-2.127.4c-.13.673-.277,1.341-.456,2H18.3l2-2ZM21.586,13H13V4.414ZM11,10H5.414L11,4.414Zm0,2v2a1,1,0,0,0,1,1h2v5.586L5.414,12ZM4,19.113H9.7l2,2H7a1,1,0,0,0-1,1V52a1,1,0,0,0,1,1H44.671L46.3,54.61a1,1,0,0,0,.7.289h.014a1,1,0,0,0,.709-.308L49.245,53H57a1,1,0,0,0,1-1V43.853l2-2.09v13.35H4Zm56,40a1,1,0,0,1-1,1H5a1,1,0,0,1-1-1v-2H25.764l1.789.894a.99.99,0,0,0,.447.106h9a.99.99,0,0,0,.447-.106l1.789-.894H60Z" data-original="#000000" class="active-path" fill="#000000"/><rect x="32" y="3" width="2" height="11" data-original="#000000" class="active-path" fill="#000000"/><rect x="48.5" y="35.55" width="2" height="9.899" transform="translate(-14.14 46.864) rotate(-45)" data-original="#000000" class="active-path" fill="#000000"/><rect x="45.5" y="38.55" width="2" height="9.899" transform="translate(-17.14 45.621) rotate(-45)" data-original="#000000" class="active-path" fill="#000000"/></g> </svg>
